<?xml version="1.0" encoding="UTF-8"?>
<svg id="Layer_2" data-name="Layer 2" xmlns="http://www.w3.org/2000/svg" xmlns:xlink="http://www.w3.org/1999/xlink" viewBox="0 0 148.34 41.81">
  <defs>
    <style>
      .cls-1 {
        fill: url(#linear-gradient);
      }

      .cls-2 {
        fill: #fff;
      }

      .cls-3 {
        fill: #dfa459;
      }

      .cls-4 {
        fill: url(#linear-gradient-8);
      }

      .cls-5 {
        fill: url(#linear-gradient-9);
      }

      .cls-6 {
        fill: url(#linear-gradient-3);
      }

      .cls-7 {
        fill: url(#linear-gradient-4);
      }

      .cls-8 {
        fill: url(#linear-gradient-2);
      }

      .cls-9 {
        fill: url(#linear-gradient-6);
      }

      .cls-10 {
        fill: url(#linear-gradient-7);
      }

      .cls-11 {
        fill: url(#linear-gradient-5);
      }

      .cls-12 {
        fill: url(#linear-gradient-10);
      }
    </style>
    <linearGradient id="linear-gradient" x1="1.73" y1="16.37" x2="13.37" y2="16.37" gradientUnits="userSpaceOnUse">
      <stop offset="0" stop-color="#1c3877"/>
      <stop offset="1" stop-color="#1c3877"/>
    </linearGradient>
    <linearGradient id="linear-gradient-2" x1="16.62" y1="11.29" x2="32.38" y2="11.29" xlink:href="#linear-gradient"/>
    <linearGradient id="linear-gradient-3" x1="35.63" x2="47.27" xlink:href="#linear-gradient"/>
    <linearGradient id="linear-gradient-4" x1="0" y1="23.17" x2="49" y2="23.17" xlink:href="#linear-gradient"/>
    <linearGradient id="linear-gradient-5" x1="55.77" y1="15.47" x2="64.07" y2="15.47" xlink:href="#linear-gradient"/>
    <linearGradient id="linear-gradient-6" x1="64.48" y1="15.47" x2="73.15" y2="15.47" xlink:href="#linear-gradient"/>
    <linearGradient id="linear-gradient-7" x1="73.83" y1="15.47" x2="84.31" y2="15.47" xlink:href="#linear-gradient"/>
    <linearGradient id="linear-gradient-8" x1="84.58" y1="15.5" x2="94.88" y2="15.5" xlink:href="#linear-gradient"/>
    <linearGradient id="linear-gradient-9" x1="95.43" y1="15.47" x2="105.05" y2="15.47" xlink:href="#linear-gradient"/>
    <linearGradient id="linear-gradient-10" x1="105.46" y1="15.47" x2="115.97" y2="15.47" xlink:href="#linear-gradient"/>
  </defs>
  <g id="Layer_1-2" data-name="Layer 1">
    <g>
      <path class="cls-3" d="m1.73,28.25c1.22-.63,2.47-1.2,3.75-1.73v8.17l-3.75-1.79v-4.66Z"/>
      <path class="cls-1" d="m13.37,5.31v17.89c-1.27.29-2.52.62-3.75,1.01v-12.95l-4.14,1.98v12.47c-1.28.53-2.53,1.1-3.75,1.73V10.87l3.75-1.79,4.14-1.98,3.75-1.79Z"/>
      <path class="cls-3" d="m9.63,25.03c1.23-.38,2.48-.72,3.75-1.01v14.44l-3.75-1.79v-11.64Z"/>
      <path class="cls-3" d="m16.62,23.4c1.23-.2,2.48-.35,3.75-.45v18.85l-3.75-1.79v-16.62Z"/>
      <path class="cls-8" d="m32.38,3.76v18.81c-1.23-.2-2.48-.35-3.75-.45V6.12l-4.13-1.97-4.13,1.97v16c-1.26.1-2.51.25-3.75.45V3.76l3.53-1.68.22-.1,4.13-1.97,4.13,1.97.22.1,3.53,1.68Z"/>
      <path class="cls-3" d="m28.63,22.95c1.26.1,2.51.25,3.75.45v16.58l-3.75,1.79v-18.82Z"/>
      <path class="cls-3" d="m35.63,24.03c1.27.29,2.52.62,3.75,1.01v11.61l-3.75,1.79v-14.41Z"/>
      <path class="cls-6" d="m47.27,10.87v16.56c-1.22-.63-2.47-1.2-3.75-1.73v-12.47l-4.14-1.98v12.95c-1.23-.38-2.48-.72-3.75-1.01V5.31l3.75,1.79,4.14,1.98,3.75,1.79Z"/>
      <path class="cls-3" d="m43.52,26.53c1.28.53,2.53,1.1,3.75,1.73v4.63l-3.75,1.79v-8.14Z"/>
      <path class="cls-7" d="m49,24.38v3.98c-.57-.32-1.15-.63-1.73-.93-1.22-.63-2.47-1.2-3.75-1.73-1.35-.56-2.73-1.06-4.14-1.49-1.23-.38-2.48-.72-3.75-1.01-1.07-.24-2.15-.45-3.25-.63-1.23-.2-2.48-.35-3.75-.45-1.36-.11-2.74-.17-4.13-.17s-2.77.06-4.13.17c-1.26.1-2.51.25-3.75.45-1.09.17-2.18.38-3.25.63-1.27.29-2.52.62-3.75,1.01-1.41.44-2.79.94-4.14,1.49-1.28.53-2.53,1.1-3.75,1.73-.59.3-1.16.61-1.73.93v-3.98c.57-.32,1.15-.63,1.73-.93,1.22-.62,2.47-1.2,3.75-1.73,1.35-.56,2.73-1.06,4.14-1.49,1.23-.38,2.48-.72,3.75-1.01,1.07-.24,2.15-.45,3.25-.62,1.23-.2,2.48-.35,3.75-.45,1.36-.11,2.74-.17,4.13-.17s2.77.06,4.13.17c1.26.1,2.51.25,3.75.45,1.09.17,2.18.38,3.25.62,1.27.29,2.52.62,3.75,1.01,1.41.44,2.79.94,4.14,1.49,1.28.53,2.53,1.1,3.75,1.73.59.3,1.16.61,1.73.93Z"/>
      <circle class="cls-2" cx="24.5" cy="19.97" r=".55"/>
      <circle class="cls-2" cx="6.59" cy="23.42" r=".55"/>
      <circle class="cls-2" cx="42.41" cy="23.43" r=".55"/>
      <g>
        <path class="cls-11" d="m59.89,20.39l-2.16-.03c-.5,0-1.09.01-1.79.04l-.17-.74c.44,0,.73-.06.88-.14.14-.08.21-.2.21-.36l.06-7.39c0-.17-.06-.29-.19-.37-.12-.08-.37-.12-.74-.12l-.18-.74c1.1.03,1.86.04,2.27.04s.96-.01,1.66-.04l.17.74c-.44,0-.73.06-.88.14-.14.08-.21.2-.21.36v7.01c0,.49.23.73.68.73h1.3c1.24,0,2.09-.66,2.54-1.98l.74.15c0,.16-.13.64-.4,1.45-.27.81-.46,1.22-.59,1.22l-3.18.03Z"/>
        <path class="cls-9" d="m70.1,11.4h-1.72s-.33.01-.33.01c-.38.02-.56.04-.56.06v3.4h2.29c.11,0,.17-.44.17-1.32l.77-.12-.04,1.9c0,.52.01,1.09.04,1.7l-.8.15c0-.52,0-.86-.03-1.01-.02-.15-.06-.22-.14-.22h-2.26v2.84c0,.3.08.5.25.59.17.09.45.14.84.14h1.3c1.24,0,2.09-.66,2.54-1.98l.74.15c0,.16-.13.64-.4,1.46-.27.82-.46,1.23-.59,1.23h-3.18s-2.52,0-2.52,0c-.49,0-1.08.01-1.79.04l-.17-.74c.44,0,.73-.06.88-.14.14-.08.21-.2.21-.36v-7.39c0-.17-.06-.29-.19-.37-.12-.08-.37-.12-.74-.12l-.18-.74c1.1.03,1.75.04,1.93.04h5.72c.11.26.17.66.17,1.21s-.02,1.04-.07,1.47l-.61-.1c-.1-.63-.27-1.09-.5-1.36s-.57-.41-1.01-.41Z"/>
        <path class="cls-10" d="m79.24,11.37c-1.02,0-1.82.37-2.39,1.12-.57.75-.86,1.71-.86,2.89s.3,2.17.9,2.96c.6.79,1.45,1.19,2.54,1.19.51,0,.95-.08,1.32-.25.38-.17.56-.44.56-.83v-1.46c0-.12-.03-.21-.1-.28-.15-.15-.65-.22-1.52-.22l-.18-.74c1.1.03,1.97.04,2.61.04s1.31-.01,2.01-.04l.17.74c-.44,0-.73.05-.87.14-.14.08-.21.2-.21.36v1.47c0,.7-.12,1.09-.36,1.17h.1c-1.06.58-2.3.88-3.72.88-1.68,0-3-.45-3.96-1.34-.96-.9-1.44-2.11-1.44-3.64s.53-2.77,1.59-3.71c1.06-.95,2.4-1.42,4-1.42.6,0,1.23.07,1.9.21.67.14,1.2.24,1.6.3.11.23.17.6.17,1.1s-.03,1.02-.08,1.56l-.69-.12c-.13-.72-.47-1.24-1.01-1.58-.55-.34-1.24-.51-2.07-.51Z"/>
        <path class="cls-4" d="m86.36,20.37l-1.68.06-.1-.76c.32-.03.58-.11.79-.23.2-.13.35-.27.44-.42s.19-.38.3-.68l2.88-7.74h1.2l3.25,7.96c.17.41.34.71.52.87.18.17.43.25.76.25l.15.73c-.42-.03-1.12-.04-2.08-.04s-1.66.01-2.09.04l-.12-.73c.49,0,.79-.03.91-.1.12-.07.18-.15.18-.24s-.03-.2-.08-.32l-.92-2.07h-2.99l-.58,1.65c-.04.1-.06.2-.06.29,0,.19.11.37.34.52.23.16.58.24,1.06.25l.14.76-2.22-.06Zm2.67-7.29l-1.06,2.99h2.3l-1.24-2.99Z"/>
        <path class="cls-5" d="m100.86,11.38c-1.06,0-1.87.37-2.43,1.11-.56.74-.85,1.7-.85,2.87s.33,2.16.99,2.97c.66.81,1.52,1.21,2.58,1.21,1.41,0,2.39-.7,2.96-2.11l.94.21c0,.08-.12.46-.36,1.12-.24.67-.39.99-.44.99-.96.52-2.08.79-3.38.79-1.6,0-2.91-.45-3.92-1.34-1.02-.89-1.52-2.07-1.52-3.53,0-1.65.53-2.94,1.58-3.87,1.05-.92,2.4-1.38,4.04-1.38.73,0,1.51.1,2.36.3.43.08.82.15,1.17.21.1.21.15.57.15,1.09s-.03,1.04-.08,1.57l-.99-.11c-.06-.54-.19-.96-.39-1.24-.4-.57-1.2-.85-2.41-.85Z"/>
        <path class="cls-12" d="m109.9,11.27c-.61,0-.91.09-.91.28,0,.1.06.23.18.39l1.87,3.1,1.92-2.69c.18-.23.28-.42.28-.57s-.07-.27-.22-.37c-.15-.1-.4-.14-.76-.14l-.14-.73,2.08.04,1.68-.04.1.73c-.25,0-.5.07-.74.22-.25.15-.44.3-.59.45-.14.15-.34.38-.59.68l-2.3,3.14v3.4c.01.17.08.29.2.37.12.08.37.12.74.12l.18.74c-1.1-.03-1.86-.04-2.26-.04s-.96.01-1.67.04l-.17-.74c.44,0,.73-.06.88-.14.14-.08.21-.2.21-.36v-3.07l-2.56-3.69c-.56-.75-1.13-1.13-1.69-1.13l-.15-.73c.42.03,1.18.04,2.26.04s1.77-.01,2.05-.04l.12.73Z"/>
      </g>
      <g>
        <path class="cls-3" d="m61.11,26.08c-1.09,0-1.93.4-2.55,1.2-.61.8-.92,1.82-.92,3.08s.32,2.31.96,3.15c.64.85,1.54,1.27,2.71,1.27.54,0,1.01-.09,1.41-.26.4-.18.6-.47.6-.88v-1.56c0-.13-.03-.22-.1-.29-.16-.16-.69-.23-1.61-.23l-.19-.79c1.17.03,2.1.04,2.78.04s1.39-.01,2.13-.04l.18.79c-.47,0-.78.06-.93.15-.15.09-.23.22-.23.38v1.57c0,.74-.13,1.16-.38,1.25h.1c-1.12.62-2.45.94-3.96.94-1.79,0-3.2-.48-4.22-1.43-1.02-.95-1.53-2.24-1.53-3.87s.56-2.95,1.69-3.95c1.13-1.01,2.55-1.51,4.26-1.51.64,0,1.31.08,2.02.23.71.15,1.28.26,1.7.32.12.24.18.64.18,1.17s-.03,1.09-.09,1.66l-.73-.13c-.14-.76-.5-1.33-1.08-1.69-.58-.36-1.32-.54-2.21-.54Z"/>
        <path class="cls-3" d="m73.12,35.84c-1.57,0-2.75-.31-3.54-.92-.78-.62-1.17-1.6-1.17-2.96v-5.43c0-.18-.07-.31-.2-.4-.13-.09-.39-.13-.78-.13l-.19-.79c1.17.03,1.98.04,2.41.04s1.02-.01,1.77-.04l.18.79c-.47,0-.78.06-.93.15-.15.09-.23.22-.23.38v5.25c0,2.01.93,3.01,2.8,3.01.7,0,1.23-.24,1.58-.73.35-.49.52-1.18.52-2.07v-5.46c0-.18-.07-.31-.2-.4-.13-.09-.39-.13-.78-.13l-.19-.79c1.17.03,1.9.04,2.19.04s.8-.01,1.54-.04l.18.79c-.47,0-.78.06-.93.15-.15.09-.23.22-.23.38v5.33c0,2.66-1.26,3.99-3.78,3.99Z"/>
        <path class="cls-3" d="m80.25,35.66l-1.79.06-.1-.81c.34-.03.62-.11.84-.25.22-.14.37-.29.47-.45.1-.16.21-.4.32-.73l3.07-8.24h1.28l3.46,8.48c.18.44.36.75.55.93.19.18.46.27.81.27l.16.78c-.45-.03-1.19-.04-2.22-.04s-1.77.01-2.23.04l-.13-.78c.52,0,.84-.04.97-.11.13-.07.19-.16.19-.26s-.03-.21-.09-.34l-.98-2.2h-3.18l-.62,1.76c-.04.11-.06.21-.06.31,0,.21.12.39.37.56.24.17.62.25,1.13.26l.15.81-2.36-.06Zm2.85-7.76l-1.13,3.18h2.45l-1.32-3.18Z"/>
        <path class="cls-3" d="m100.03,35.7l-1.45-.04c-.31,0-.87,0-1.67.03-.09-.12-.2-.28-.33-.48-.13-.2-.29-.44-.48-.73-.19-.29-.54-.81-1.04-1.58-.5-.76-.89-1.32-1.15-1.67,0,0,0-.01.01-.01h-.95v3.17c0,.18.07.31.2.4.13.09.39.13.78.13l.19.79c-1.17-.03-1.98-.04-2.41-.04s-1.02.01-1.78.04l-.18-.79c.47,0,.78-.06.93-.15.15-.09.23-.22.23-.38v-7.86c0-.18-.07-.31-.2-.4-.13-.09-.39-.13-.78-.13l-.19-.79c1.17.03,1.86.04,2.05.04l2.19-.06c1.15,0,2.1.24,2.82.71.73.47,1.09,1.2,1.09,2.16,0,1.3-.68,2.23-2.05,2.77.41.54.71.94.89,1.22h-.01c1.08,1.48,1.66,2.26,1.76,2.35.35.33.77.51,1.25.54l.28.76Zm-7.07-9.48v4.18c.17,0,.37.01.62.01.77,0,1.36-.21,1.75-.63.4-.42.59-.97.59-1.65s-.2-1.19-.6-1.52c-.4-.33-.89-.5-1.48-.5s-.88.03-.88.1Z"/>
        <path class="cls-3" d="m104.99,35.7l-2.64-.07c-.52,0-1.15.01-1.91.04l-.18-.79c.47,0,.78-.06.93-.15.15-.09.23-.22.23-.38v-7.82c0-.18-.07-.31-.2-.4-.13-.09-.39-.13-.78-.13l-.19-.79c1.17.03,1.86.04,2.05.04l2.93-.03c1.94,0,3.45.44,4.55,1.31,1.1.88,1.64,2.13,1.64,3.77s-.56,2.95-1.68,3.92c-1.12.98-2.71,1.47-4.76,1.47Zm3.2-2.02c.65-.73.97-1.8.97-3.19s-.37-2.47-1.11-3.24c-.74-.77-1.79-1.15-3.16-1.15h-1.1c-.25,0-.38.03-.38.1v7.61c0,.25.02.44.07.54.05.11.22.21.51.29.29.09.76.13,1.39.13,1.22,0,2.16-.37,2.8-1.1Z"/>
        <path class="cls-3" d="m115.65,26.52v7.86c0,.18.07.31.2.4.13.09.39.13.78.13l.19.79c-1.17-.03-1.98-.04-2.41-.04s-1.02.01-1.78.04l-.18-.79c.47,0,.78-.06.93-.15.15-.09.23-.22.23-.38v-7.86c0-.18-.07-.31-.2-.4-.13-.09-.39-.13-.78-.13l-.19-.79c1.17.03,1.98.04,2.41.04s1.02-.01,1.77-.04l.18.79c-.47,0-.78.06-.93.15-.15.09-.23.22-.23.38Z"/>
        <path class="cls-3" d="m119.16,35.66l-1.79.06-.1-.81c.34-.03.62-.11.84-.25.22-.14.37-.29.47-.45.1-.16.21-.4.32-.73l3.07-8.24h1.28l3.46,8.48c.18.44.36.75.55.93.19.18.46.27.81.27l.16.78c-.45-.03-1.19-.04-2.22-.04s-1.77.01-2.23.04l-.13-.78c.52,0,.84-.04.97-.11.13-.07.19-.16.19-.26s-.03-.21-.09-.34l-.98-2.2h-3.18l-.62,1.76c-.04.11-.06.21-.06.31,0,.21.12.39.37.56.24.17.62.25,1.13.26l.15.81-2.36-.06Zm2.85-7.76l-1.13,3.18h2.45l-1.32-3.18Z"/>
        <path class="cls-3" d="m138.8,35.72c-.2-.04-.41-.06-.64-.06s-.42.01-.56.04l-6.21-7.88v6.56c0,.18.07.31.2.4.13.09.39.13.78.13l.19.79c-1.17-.03-1.9-.04-2.17-.04s-.79.01-1.54.04l-.18-.79c.84-.02,1.26-.2,1.26-.53v-7.86c0-.35-.36-.53-1.09-.53l-.19-.79c1.17.03,1.97.04,2.38.04s.74-.01,1-.04c0,.12.07.28.21.48.14.2.25.37.34.51.09.14.22.31.37.51.15.2.28.37.4.52.11.15.26.33.43.54.65.81,1.04,1.31,1.18,1.48.14.18.54.69,1.19,1.53.65.85,1.05,1.36,1.2,1.53v-5.79c-.01-.18-.08-.31-.21-.4-.13-.09-.39-.13-.78-.13l-.19-.79c1.17.03,1.9.04,2.18.04s.79-.01,1.53-.04l.18.79c-.84.02-1.26.2-1.26.53v9.2Z"/>
        <path class="cls-3" d="m142.94,34.21c.39.38.9.57,1.53.57s1.08-.15,1.36-.45c.28-.3.43-.67.43-1.11s-.17-.83-.52-1.16c-.35-.33-.77-.62-1.26-.87-.49-.24-.99-.5-1.48-.78-.49-.27-.91-.63-1.26-1.08-.35-.44-.52-.96-.52-1.55,0-.9.34-1.58,1.03-2.04.68-.46,1.55-.69,2.6-.69s2.03.22,2.94.65c.1.2.15.61.15,1.24s-.02,1.12-.07,1.47l-.92-.03c-.07-1.55-.84-2.32-2.3-2.32-.39,0-.71.11-.97.34-.25.23-.38.53-.38.89s.12.68.37.95c.25.27.56.51.94.7.38.19.78.41,1.22.66.44.25.84.5,1.22.75.38.25.69.58.94.99.25.41.37.87.37,1.36,0,.88-.33,1.62-.99,2.22-.66.6-1.51.89-2.55.89s-2.19-.23-3.46-.69c-.05-.16-.12-.54-.21-1.14-.09-.61-.16-1.11-.2-1.53l1.1-.21c.22.91.52,1.56.91,1.94Z"/>
      </g>
    </g>
  </g>
</svg>