<?xml version="1.0" encoding="UTF-8"?>
<svg id="Layer_2" data-name="Layer 2" xmlns="http://www.w3.org/2000/svg" viewBox="0 0 230.18 64.88">
  <defs>
    <style>
      .cls-1 {
        fill: #002765;
      }

      .cls-2 {
        fill: #fff;
      }

      .cls-3 {
        fill: #dfa459;
      }
    </style>
  </defs>
  <g id="Layer_1-2" data-name="Layer 1">
    <g>
      <path class="cls-3" d="m2.69,43.84c1.89-.97,3.83-1.86,5.82-2.68v12.68l-5.82-2.78v-7.23Z"/>
      <path class="cls-2" d="m20.75,8.24v27.76c-1.97.45-3.91.97-5.82,1.56v-20.1l-6.43,3.07v19.35c-1.98.81-3.92,1.71-5.82,2.68v-25.7l5.82-2.78,6.43-3.07,5.82-2.78Z"/>
      <path class="cls-3" d="m14.94,38.85c1.91-.59,3.85-1.12,5.82-1.56v22.41l-5.82-2.78v-18.07Z"/>
      <path class="cls-3" d="m25.79,36.32c1.92-.3,3.85-.54,5.82-.7v29.26l-5.82-2.78v-25.78Z"/>
      <path class="cls-2" d="m50.25,5.83v29.2c-1.92-.3-3.85-.54-5.81-.7V9.5l-6.41-3.06-6.41,3.06v24.83c-1.96.16-3.9.39-5.82.7V5.83l5.48-2.61.34-.16,6.41-3.06,6.41,3.06.33.16,5.48,2.61Z"/>
      <path class="cls-3" d="m44.43,35.62c1.96.16,3.9.39,5.81.7v25.73l-5.81,2.78v-29.21Z"/>
      <path class="cls-3" d="m55.29,37.29c1.97.45,3.91.97,5.82,1.56v18.02l-5.82,2.77v-22.36Z"/>
      <path class="cls-2" d="m73.35,16.86v25.7c-1.89-.97-3.83-1.86-5.82-2.68v-19.35l-6.43-3.07v20.1c-1.91-.59-3.85-1.12-5.82-1.56V8.24l5.82,2.78,6.43,3.07,5.82,2.78Z"/>
      <path class="cls-3" d="m67.53,41.17c1.98.81,3.92,1.71,5.82,2.68v7.18l-5.82,2.77v-12.63Z"/>
      <path class="cls-2" d="m76.04,37.83v6.17c-.89-.5-1.78-.98-2.69-1.45-1.89-.97-3.83-1.86-5.82-2.68-2.1-.86-4.24-1.64-6.43-2.32-1.91-.59-3.85-1.12-5.82-1.56-1.66-.38-3.34-.7-5.04-.97-1.92-.3-3.85-.54-5.81-.7-2.12-.17-4.26-.26-6.41-.26s-4.3.09-6.41.26c-1.96.16-3.9.39-5.82.7-1.7.27-3.38.59-5.04.97-1.97.45-3.91.97-5.82,1.56-2.19.68-4.33,1.45-6.43,2.32-1.98.81-3.92,1.71-5.82,2.68-.91.46-1.8.95-2.69,1.45v-6.17c.89-.5,1.78-.98,2.69-1.45,1.89-.97,3.83-1.86,5.82-2.68,2.1-.86,4.24-1.64,6.43-2.32,1.91-.59,3.85-1.12,5.82-1.56,1.66-.38,3.34-.7,5.04-.97,1.92-.3,3.85-.54,5.82-.7,2.11-.17,4.25-.26,6.41-.26s4.3.09,6.41.26c1.96.16,3.9.39,5.81.7,1.7.27,3.38.59,5.04.97,1.97.45,3.91.97,5.82,1.56,2.19.68,4.33,1.45,6.43,2.32,1.98.81,3.92,1.71,5.82,2.68.91.47,1.8.95,2.69,1.45Z"/>
      <circle class="cls-1" cx="38.02" cy="30.99" r=".85"/>
      <circle class="cls-1" cx="10.23" cy="36.35" r=".85"/>
      <circle class="cls-1" cx="65.81" cy="36.35" r=".85"/>
      <g>
        <path class="cls-2" d="m92.94,31.65l-3.36-.04c-.77,0-1.7.02-2.78.06l-.26-1.15c.68-.01,1.14-.09,1.36-.21.22-.13.33-.31.33-.56l.09-11.46c0-.26-.1-.45-.29-.58-.19-.13-.57-.19-1.14-.19l-.28-1.15c1.71.04,2.88.06,3.52.06s1.49-.02,2.58-.06l.26,1.15c-.68.01-1.14.09-1.36.21-.22.13-.33.31-.33.56v10.88c0,.76.35,1.13,1.05,1.13h2.01c1.92,0,3.24-1.03,3.93-3.08l1.15.24c0,.24-.21.99-.62,2.26-.41,1.26-.72,1.89-.92,1.89l-4.94.04Z"/>
        <path class="cls-2" d="m108.78,17.68l-2.67.02h-.51c-.58.03-.88.06-.88.09v5.28h3.55c.17,0,.26-.68.26-2.05l1.2-.19-.06,2.95c0,.81.02,1.69.06,2.63l-1.24.24c0-.81-.01-1.33-.04-1.56-.03-.23-.1-.34-.21-.34h-3.51v4.41c0,.47.13.78.38.92.26.14.69.21,1.3.21h2.01c1.92,0,3.24-1.03,3.93-3.08l1.15.24c0,.24-.21,1-.62,2.27-.41,1.27-.72,1.9-.92,1.9l-4.94.02-3.91-.02c-.76,0-1.68.02-2.78.06l-.26-1.15c.68-.01,1.14-.09,1.36-.21.22-.13.33-.31.33-.56v-11.46c0-.26-.1-.45-.29-.58-.19-.13-.57-.19-1.14-.19l-.28-1.15c1.71.04,2.71.06,2.99.06h5.54l3.34.02c.17.38.26,1.01.26,1.86s-.04,1.62-.11,2.29l-.94-.15c-.16-.98-.42-1.69-.78-2.12s-.89-.64-1.57-.64Z"/>
        <path class="cls-2" d="m122.96,17.64c-1.58,0-2.82.58-3.71,1.74-.89,1.16-1.34,2.66-1.34,4.49s.47,3.36,1.4,4.6c.93,1.23,2.25,1.85,3.95,1.85.78,0,1.47-.13,2.05-.38.58-.26.88-.68.88-1.28v-2.27c0-.19-.05-.33-.15-.43-.23-.23-1.01-.34-2.35-.34l-.28-1.15c1.71.04,3.06.06,4.05.06s2.03-.02,3.11-.06l.26,1.15c-.68.01-1.14.09-1.36.21-.22.13-.33.31-.33.56v2.29c0,1.08-.19,1.69-.56,1.82l.15-.02c-1.64.93-3.56,1.39-5.77,1.39-2.61,0-4.66-.69-6.15-2.08-1.49-1.39-2.23-3.27-2.23-5.65s.82-4.29,2.47-5.76c1.65-1.47,3.72-2.2,6.21-2.2.93,0,1.91.11,2.95.33,1.04.22,1.87.37,2.48.46.17.36.26.93.26,1.71s-.04,1.59-.13,2.42l-1.07-.19c-.2-1.11-.72-1.93-1.57-2.46-.85-.53-1.92-.79-3.22-.79Z"/>
        <path class="cls-2" d="m134.01,31.6l-2.61.09-.15-1.18c.5-.04.91-.16,1.22-.36.31-.2.54-.42.68-.65s.3-.59.47-1.06l4.47-12.02h1.86l5.05,12.36c.26.64.52,1.09.8,1.36.28.26.67.4,1.19.4l.24,1.13c-.66-.04-1.73-.06-3.23-.06s-2.58.02-3.25.06l-.19-1.13c.76,0,1.23-.05,1.41-.16.19-.11.28-.23.28-.37s-.04-.31-.13-.49l-1.43-3.21h-4.64l-.9,2.57c-.06.16-.09.31-.09.45,0,.3.18.57.53.81.36.24.91.37,1.65.38l.21,1.18-3.44-.09Zm4.15-11.31l-1.65,4.64h3.57l-1.92-4.64Z"/>
        <path class="cls-2" d="m156.51,17.66c-1.64,0-2.9.57-3.77,1.72-.88,1.15-1.31,2.63-1.31,4.45s.51,3.35,1.54,4.61c1.03,1.25,2.36,1.88,4,1.88,2.18,0,3.71-1.09,4.6-3.27l1.45.32c0,.13-.19.71-.56,1.74-.37,1.03-.6,1.54-.68,1.53-1.48.81-3.23,1.22-5.24,1.22-2.48,0-4.51-.69-6.08-2.07-1.58-1.38-2.36-3.21-2.36-5.47,0-2.57.82-4.57,2.45-6,1.63-1.43,3.72-2.15,6.28-2.15,1.13,0,2.34.16,3.66.47.67.13,1.28.24,1.82.32.16.33.24.89.24,1.69s-.04,1.61-.13,2.44l-1.54-.17c-.1-.84-.3-1.48-.6-1.92-.61-.88-1.86-1.33-3.74-1.33Z"/>
        <path class="cls-2" d="m170.53,17.49c-.94,0-1.41.14-1.41.43,0,.16.09.36.28.6l2.91,4.81,2.97-4.17c.29-.36.43-.65.43-.88s-.11-.42-.34-.57c-.23-.15-.62-.22-1.18-.22l-.21-1.13,3.23.06,2.61-.06.15,1.13c-.38,0-.77.11-1.15.34-.38.23-.69.46-.91.7-.22.24-.52.59-.91,1.06l-3.57,4.88.02,5.28c0,.26.1.45.29.58.19.13.57.19,1.14.19l.28,1.15c-1.71-.04-2.88-.06-3.51-.06s-1.49.02-2.59.06l-.26-1.15c.68-.01,1.14-.09,1.36-.21.22-.13.33-.31.33-.56v-4.77l-3.98-5.73c-.87-1.17-1.75-1.75-2.63-1.75l-.24-1.13c.66.04,1.82.06,3.51.06s2.74-.02,3.19-.06l.19,1.13Z"/>
      </g>
      <g>
        <path class="cls-3" d="m94.82,40.47c-1.68,0-3,.62-3.95,1.86-.95,1.24-1.42,2.83-1.42,4.78s.5,3.58,1.49,4.89c.99,1.31,2.39,1.97,4.2,1.97.83,0,1.56-.14,2.19-.41.62-.27.93-.73.93-1.37v-2.41c0-.2-.05-.35-.16-.46-.24-.24-1.08-.36-2.5-.36l-.3-1.23c1.82.05,3.26.07,4.31.07s2.16-.02,3.31-.07l.27,1.23c-.73.02-1.21.09-1.45.23-.24.14-.35.33-.35.59v2.44c0,1.15-.2,1.8-.59,1.94l.16-.02c-1.75.99-3.79,1.48-6.15,1.48-2.78,0-4.96-.74-6.54-2.22-1.59-1.48-2.38-3.48-2.38-6.01s.88-4.57,2.63-6.14c1.75-1.56,3.96-2.34,6.61-2.34.99,0,2.03.12,3.14.35,1.11.24,1.99.4,2.64.49.18.38.27.99.27,1.82s-.05,1.69-.14,2.57l-1.14-.2c-.21-1.18-.77-2.06-1.67-2.62-.9-.56-2.05-.84-3.43-.84Z"/>
        <path class="cls-3" d="m113.47,55.61c-2.44,0-4.27-.48-5.49-1.43-1.21-.96-1.82-2.49-1.82-4.6v-8.42c0-.27-.1-.48-.31-.61-.2-.14-.61-.2-1.22-.2l-.3-1.23c1.82.05,3.07.07,3.74.07s1.59-.02,2.74-.07l.27,1.23c-.73.02-1.21.09-1.45.23-.24.14-.35.33-.35.59v8.15c0,3.11,1.45,4.67,4.35,4.67,1.09,0,1.91-.38,2.45-1.14.54-.76.81-1.83.81-3.21v-8.47c0-.27-.1-.48-.31-.61-.2-.14-.61-.2-1.22-.2l-.3-1.23c1.82.05,2.95.07,3.39.07s1.24-.02,2.39-.07l.27,1.23c-.73.02-1.21.09-1.45.23-.24.14-.35.33-.35.59v8.26c0,4.13-1.96,6.19-5.87,6.19Z"/>
        <path class="cls-3" d="m124.53,55.34l-2.78.09-.16-1.25c.53-.05.96-.17,1.3-.39.33-.21.58-.44.73-.69.15-.25.32-.63.5-1.13l4.76-12.79h1.98l5.37,13.16c.27.68.56,1.16.85,1.45.3.28.72.42,1.26.42l.25,1.21c-.7-.05-1.84-.07-3.44-.07s-2.75.02-3.46.07l-.2-1.21c.8,0,1.31-.06,1.5-.17.2-.11.3-.25.3-.4s-.05-.33-.14-.52l-1.53-3.41h-4.94l-.96,2.73c-.06.17-.09.33-.09.48,0,.32.19.61.57.87.38.26.96.39,1.75.41l.23,1.25-3.67-.09Zm4.42-12.04l-1.75,4.94h3.8l-2.05-4.94Z"/>
        <path class="cls-3" d="m155.22,55.41l-2.25-.07c-.49,0-1.35.01-2.6.05-.14-.18-.31-.43-.51-.74-.2-.31-.46-.69-.75-1.14-.3-.45-.83-1.26-1.62-2.45-.78-1.18-1.38-2.05-1.79-2.6,0-.01,0-.02.02-.02h-1.48v4.92c0,.27.1.48.31.61.2.14.61.2,1.22.2l.3,1.23c-1.82-.05-3.07-.07-3.73-.07s-1.59.02-2.75.07l-.27-1.23c.73-.01,1.21-.09,1.45-.23.24-.14.35-.33.35-.59v-12.2c0-.27-.1-.48-.31-.61-.2-.14-.61-.2-1.22-.2l-.3-1.23c1.82.05,2.88.07,3.19.07l3.39-.09c1.79,0,3.25.37,4.38,1.1,1.13.74,1.7,1.86,1.7,3.36,0,2.02-1.06,3.45-3.19,4.3.64.83,1.1,1.46,1.39,1.89h-.02c1.67,2.29,2.58,3.51,2.73,3.64.55.52,1.19.8,1.94.84l.43,1.18Zm-10.97-14.71v6.49c.26.02.58.02.96.02,1.2,0,2.11-.33,2.72-.98.61-.65.92-1.51.92-2.56s-.31-1.84-.93-2.36c-.62-.52-1.39-.77-2.3-.77s-1.37.05-1.37.16Z"/>
        <path class="cls-3" d="m162.91,55.41l-4.1-.11c-.8,0-1.79.02-2.96.07l-.27-1.23c.73-.01,1.21-.09,1.45-.23.24-.14.35-.33.35-.59v-12.13c0-.27-.1-.48-.31-.61-.2-.14-.61-.2-1.22-.2l-.3-1.23c1.82.05,2.88.07,3.19.07l4.55-.05c3.01,0,5.36.68,7.06,2.04,1.7,1.36,2.55,3.31,2.55,5.85s-.87,4.57-2.61,6.09c-1.74,1.52-4.2,2.28-7.39,2.28Zm4.96-3.14c1-1.14,1.5-2.79,1.5-4.95s-.57-3.84-1.72-5.03c-1.15-1.19-2.78-1.79-4.91-1.79h-1.71c-.39,0-.59.05-.59.16v11.82c0,.39.04.68.11.84.08.17.34.32.8.46.46.14,1.18.2,2.16.2,1.9,0,3.35-.57,4.35-1.71Z"/>
        <path class="cls-3" d="m179.46,41.15v12.2c0,.27.1.48.31.61.2.14.61.2,1.22.2l.3,1.23c-1.82-.05-3.07-.07-3.73-.07s-1.59.02-2.75.07l-.27-1.23c.73-.01,1.21-.09,1.45-.23.24-.14.35-.33.35-.59v-12.2c0-.27-.1-.48-.31-.61-.2-.14-.61-.2-1.22-.2l-.3-1.23c1.82.05,3.07.07,3.74.07s1.59-.02,2.74-.07l.27,1.23c-.73.02-1.21.09-1.45.23-.24.14-.35.33-.35.59Z"/>
        <path class="cls-3" d="m184.91,55.34l-2.78.09-.16-1.25c.53-.05.96-.17,1.3-.39.33-.21.58-.44.73-.69.15-.25.32-.63.5-1.13l4.76-12.79h1.98l5.37,13.16c.27.68.56,1.16.85,1.45.3.28.72.42,1.26.42l.25,1.21c-.7-.05-1.84-.07-3.44-.07s-2.75.02-3.46.07l-.2-1.21c.8,0,1.31-.06,1.5-.17.2-.11.3-.25.3-.4s-.05-.33-.14-.52l-1.53-3.41h-4.94l-.96,2.73c-.06.17-.09.33-.09.48,0,.32.19.61.57.87.38.26.96.39,1.75.41l.23,1.25-3.67-.09Zm4.42-12.04l-1.75,4.94h3.8l-2.05-4.94Z"/>
        <path class="cls-3" d="m215.39,55.43c-.3-.06-.63-.09-.99-.09s-.65.02-.88.07l-9.63-12.22v10.18c0,.27.1.48.31.61.2.14.61.2,1.22.2l.3,1.23c-1.82-.05-2.94-.07-3.37-.07s-1.22.02-2.39.07l-.27-1.23c1.31-.03,1.96-.3,1.96-.82v-12.2c0-.55-.56-.82-1.68-.82l-.3-1.23c1.82.05,3.05.07,3.69.07s1.15-.02,1.55-.07c0,.18.11.43.32.74.21.31.39.58.54.8.14.22.33.49.57.8.24.31.44.58.61.81.17.23.4.51.67.84,1,1.26,1.61,2.03,1.83,2.3.22.27.83,1.07,1.84,2.38,1.01,1.31,1.63,2.11,1.86,2.38l-.02-8.99c0-.27-.1-.48-.31-.61-.2-.14-.61-.2-1.22-.2l-.3-1.23c1.82.05,2.95.07,3.38.07s1.23-.02,2.38-.07l.27,1.23c-1.31.03-1.96.3-1.96.82l.02,14.27Z"/>
        <path class="cls-3" d="m221.81,53.08c.61.59,1.4.89,2.37.89s1.68-.23,2.12-.69c.44-.46.66-1.04.66-1.72s-.27-1.28-.81-1.8c-.54-.52-1.19-.96-1.96-1.34-.77-.38-1.53-.78-2.3-1.21-.77-.42-1.42-.98-1.96-1.67-.54-.69-.81-1.49-.81-2.4,0-1.4.53-2.45,1.59-3.16,1.06-.71,2.41-1.07,4.04-1.07s3.15.33,4.56,1c.15.3.23.94.23,1.92s-.04,1.74-.11,2.29l-1.43-.05c-.11-2.4-1.3-3.6-3.57-3.6-.61,0-1.11.18-1.5.54-.39.36-.59.82-.59,1.38s.19,1.06.58,1.48c.39.43.87.79,1.46,1.08.58.3,1.21.64,1.89,1.02.68.39,1.31.77,1.89,1.16.58.39,1.07.9,1.46,1.54.39.64.58,1.34.58,2.12,0,1.37-.51,2.51-1.54,3.44-1.02.93-2.34,1.39-3.95,1.39s-3.4-.36-5.37-1.07c-.08-.24-.19-.83-.33-1.78-.14-.94-.25-1.73-.31-2.37l1.71-.32c.33,1.41.8,2.41,1.41,3Z"/>
      </g>
    </g>
  </g>
</svg>