<?xml version="1.0" encoding="UTF-8"?>
<svg id="Layer_2" data-name="Layer 2" xmlns="http://www.w3.org/2000/svg" xmlns:xlink="http://www.w3.org/1999/xlink" viewBox="0 0 921.44 750">
  <defs>
    <style>
      .cls-1, .cls-2, .cls-3 {
        fill: none;
      }

      .cls-4 {
        fill: url(#linear-gradient);
      }

      .cls-5 {
        fill: #dfa459;
      }

      .cls-2 {
        opacity: .03;
      }

      .cls-3 {
        clip-path: url(#clippath);
      }
    </style>
    <clipPath id="clippath">
      <rect class="cls-1" x="0" y="0" width="525" height="750"/>
    </clipPath>
    <linearGradient id="linear-gradient" x1="-396.44" y1="504.92" x2="396.89" y2="504.92" gradientTransform="translate(525 752) rotate(-180)" gradientUnits="userSpaceOnUse">
      <stop offset="0" stop-color="#1c3877"/>
      <stop offset="1" stop-color="#1c3877"/>
    </linearGradient>
  </defs>
  <g id="Layer_1-2" data-name="Layer 1-2">
    <g class="cls-3">
      <g class="cls-2">
        <path class="cls-5" d="m457.85,389.15v304.72s-60.66-28.95-60.66-28.95v-268.5c19.99-3.17,40.22-5.6,60.66-7.28h0Z"/>
        <path class="cls-5" d="m344.62,406.55v233.25s-60.67-28.94-60.67-28.94v-188.02c19.91-6.21,40.13-11.64,60.67-16.3h0Z"/>
        <path class="cls-5" d="m216.87,578.82l-60.67-28.94v-74.92c19.76-10.13,40-19.45,60.67-27.95v131.81Z"/>
        <path class="cls-4" d="m156.19,397.15c-9.47,4.87-18.83,9.9-28.08,15.11v64.38c9.25-5.22,18.61-10.24,28.08-15.09,19.76-10.13,40-19.45,60.67-27.95,21.9-9.02,44.28-17.09,67.08-24.18,19.91-6.21,40.13-11.64,60.67-16.3,17.32-3.96,34.86-7.33,52.58-10.13,19.99-3.17,40.22-5.6,60.66-7.28,22.08-1.8,44.4-2.72,66.93-2.72,22.53,0,44.85.93,66.91,2.72,20.45,1.68,40.69,4.11,60.67,7.28,17.73,2.8,35.26,6.17,52.58,10.13,20.53,4.66,40.75,10.1,60.67,16.3,22.8,7.1,45.18,15.16,67.08,24.18,20.67,8.5,40.9,17.82,60.67,27.95,9.47,4.85,18.83,9.88,28.08,15.09v-64.38c-9.25-5.22-18.61-10.25-28.08-15.11v-203.7s-60.67-28.97-60.67-28.97l-67.08-32-60.67-28.97v225.21c-17.32-3.94-34.86-7.31-52.58-10.11V78.4s-57.17-27.26-57.17-27.26l-3.5-1.68-66.93-31.94-66.9,31.94-3.49,1.66-57.17,27.28v240.21c-17.72,2.8-35.26,6.17-52.58,10.11V103.51s-60.67,28.97-60.67,28.97l-67.08,32-60.67,28.97v203.7h-.01Zm649.62-.37c0-4.91,3.98-8.89,8.89-8.89s8.89,3.98,8.89,8.89-3.98,8.89-8.89,8.89-8.89-3.98-8.89-8.89Zm-40.19-197.09l67.08,32.02v137.49c-21.9-9.02-44.26-17.1-67.08-24.19v-145.32Zm-249.73,141.12c0-4.91,3.98-8.89,8.89-8.89s8.89,3.98,8.89,8.89-3.98,8.89-8.89,8.89-8.89-3.98-8.89-8.89Zm-58.04-224.14l66.93-31.94,66.91,31.92v194.68c-22.06-1.8-44.37-2.72-66.91-2.72-22.54,0-44.85.93-66.93,2.72V116.67Zm-231.88,280.13c0-4.91,3.98-8.89,8.89-8.89s8.89,3.98,8.89,8.89-3.98,8.89-8.89,8.89-8.89-3.98-8.89-8.89Zm-9.11-165.06l67.08-32.04v145.32c-22.82,7.09-45.18,15.17-67.08,24.19v-137.47Z"/>
      </g>
    </g>
  </g>
</svg>