<?xml version="1.0" encoding="UTF-8"?>
<svg id="Layer_2" data-name="Layer 2" xmlns="http://www.w3.org/2000/svg" xmlns:xlink="http://www.w3.org/1999/xlink" viewBox="0 0 525 750">
  <defs>
    <style>
      .cls-1, .cls-2, .cls-3 {
        fill: none;
      }

      .cls-4 {
        fill: url(#linear-gradient);
      }

      .cls-5 {
        fill: #dfa459;
      }

      .cls-2 {
        opacity: .03;
      }

      .cls-3 {
        clip-path: url(#clippath);
      }
    </style>
    <clipPath id="clippath">
      <rect class="cls-1" width="525" height="750"/>
    </clipPath>
    <linearGradient id="linear-gradient" x1="-396.45" y1="247.08" x2="396.89" y2="247.08" gradientUnits="userSpaceOnUse">
      <stop offset="0" stop-color="#1c3877"/>
      <stop offset="1" stop-color="#1c3877"/>
    </linearGradient>
  </defs>
  <g id="Layer_1-2" data-name="Layer 1">
    <g class="cls-3">
      <g class="cls-2">
        <path class="cls-5" d="m67.15,389.14c20.44,1.68,40.67,4.11,60.66,7.28v268.5l-60.66,28.95v-304.72Z"/>
        <path class="cls-5" d="m180.38,406.54c20.54,4.66,40.76,10.09,60.67,16.3v188.02l-60.67,28.94v-233.25Z"/>
        <path class="cls-5" d="m308.13,447.01c20.67,8.5,40.91,17.82,60.67,27.95v74.92l-60.67,28.94v-131.81Z"/>
        <path class="cls-4" d="m368.8,397.15v-203.7l-60.67-28.97-67.08-32-60.67-28.97v225.21c-17.32-3.94-34.86-7.31-52.58-10.11V78.4l-57.17-27.28-3.49-1.66L.24,17.52l-66.93,31.94-3.5,1.68-57.17,27.26v240.21c-17.72,2.8-35.26,6.17-52.58,10.11V103.51l-60.67,28.97-67.08,32-60.67,28.97v203.7c-9.47,4.86-18.83,9.89-28.08,15.11v64.38c9.25-5.21,18.61-10.24,28.08-15.09,19.77-10.13,40-19.45,60.67-27.95,21.9-9.02,44.28-17.08,67.08-24.18,19.92-6.2,40.14-11.64,60.67-16.3,17.32-3.96,34.85-7.33,52.58-10.13,19.98-3.17,40.22-5.6,60.67-7.28,22.06-1.79,44.38-2.72,66.91-2.72s44.85.92,66.93,2.72c20.44,1.68,40.67,4.11,60.66,7.28,17.72,2.8,35.26,6.17,52.58,10.13,20.54,4.66,40.76,10.09,60.67,16.3,22.8,7.09,45.18,15.16,67.08,24.18,20.67,8.5,40.91,17.82,60.67,27.95,9.47,4.85,18.83,9.87,28.08,15.09v-64.38c-9.25-5.21-18.61-10.24-28.08-15.11Zm-658.5,8.52c-4.91,0-8.89-3.98-8.89-8.89s3.98-8.89,8.89-8.89,8.89,3.98,8.89,8.89-3.98,8.89-8.89,8.89Zm49.08-60.66c-22.82,7.09-45.18,15.17-67.08,24.19v-137.49l67.08-32.02v145.32ZM.22,349.7c-4.91,0-8.89-3.98-8.89-8.89s3.98-8.89,8.89-8.89,8.89,3.98,8.89,8.89-3.98,8.89-8.89,8.89Zm66.93-38.37c-22.08-1.79-44.39-2.72-66.93-2.72s-44.85.92-66.91,2.72V116.65L.22,84.73l66.93,31.94v194.66Zm222.99,94.36c-4.91,0-8.89-3.98-8.89-8.89s3.98-8.89,8.89-8.89,8.89,3.98,8.89,8.89-3.98,8.89-8.89,8.89Zm18-36.48c-21.9-9.02-44.26-17.1-67.08-24.19v-145.32l67.08,32.04v137.47Z"/>
      </g>
    </g>
  </g>
</svg>